<mxfile host="app.diagrams.net" modified="2024-05-30T13:11:57.514Z" agent="Mozilla/5.0 (Windows NT 10.0; Win64; x64) AppleWebKit/537.36 (KHTML, like Gecko) Chrome/124.0.0.0 Safari/537.36 OPR/110.0.0.0" etag="HO7SK-Cneqobn9oaYhOf" version="24.4.10" type="google">
  <diagram id="PSxRrdH9DDdiwc7fb4nM" name="Страница — 2">
    <mxGraphModel dx="996" dy="565" grid="1" gridSize="10" guides="1" tooltips="1" connect="1" arrows="1" fold="1" page="1" pageScale="1" pageWidth="827" pageHeight="1169" math="0" shadow="0">
      <root>
        <mxCell id="0" />
        <mxCell id="1" parent="0" />
        <mxCell id="me-mc9T0GcKk_nSI2wjc-1" value="AuthService" style="swimlane;fontStyle=0;childLayout=stackLayout;horizontal=1;startSize=30;horizontalStack=0;resizeParent=1;resizeParentMax=0;resizeLast=0;collapsible=1;marginBottom=0;whiteSpace=wrap;html=1;" parent="1" vertex="1">
          <mxGeometry x="80" y="40" width="140" height="160" as="geometry" />
        </mxCell>
        <mxCell id="me-mc9T0GcKk_nSI2wjc-2" value="passswordsFilePath" style="text;strokeColor=none;fillColor=none;align=left;verticalAlign=middle;spacingLeft=4;spacingRight=4;overflow=hidden;points=[[0,0.5],[1,0.5]];portConstraint=eastwest;rotatable=0;whiteSpace=wrap;html=1;" parent="me-mc9T0GcKk_nSI2wjc-1" vertex="1">
          <mxGeometry y="30" width="140" height="30" as="geometry" />
        </mxCell>
        <mxCell id="me-mc9T0GcKk_nSI2wjc-3" value="AuthService(const string&amp;amp; passswordsFilePath)" style="text;strokeColor=none;fillColor=none;align=left;verticalAlign=middle;spacingLeft=4;spacingRight=4;overflow=hidden;points=[[0,0.5],[1,0.5]];portConstraint=eastwest;rotatable=0;whiteSpace=wrap;html=1;" parent="me-mc9T0GcKk_nSI2wjc-1" vertex="1">
          <mxGeometry y="60" width="140" height="50" as="geometry" />
        </mxCell>
        <mxCell id="me-mc9T0GcKk_nSI2wjc-4" value="bool authorize(const string&amp;amp; username, const string&amp;amp; password);" style="text;strokeColor=none;fillColor=none;align=left;verticalAlign=middle;spacingLeft=4;spacingRight=4;overflow=hidden;points=[[0,0.5],[1,0.5]];portConstraint=eastwest;rotatable=0;whiteSpace=wrap;html=1;" parent="me-mc9T0GcKk_nSI2wjc-1" vertex="1">
          <mxGeometry y="110" width="140" height="50" as="geometry" />
        </mxCell>
        <mxCell id="me-mc9T0GcKk_nSI2wjc-5" value="ConsoleManager" style="swimlane;fontStyle=0;childLayout=stackLayout;horizontal=1;startSize=30;horizontalStack=0;resizeParent=1;resizeParentMax=0;resizeLast=0;collapsible=1;marginBottom=0;whiteSpace=wrap;html=1;" parent="1" vertex="1">
          <mxGeometry x="290" y="40" width="190" height="150" as="geometry" />
        </mxCell>
        <mxCell id="me-mc9T0GcKk_nSI2wjc-6" value="void display(const string&amp;amp; text);" style="text;strokeColor=none;fillColor=none;align=left;verticalAlign=middle;spacingLeft=4;spacingRight=4;overflow=hidden;points=[[0,0.5],[1,0.5]];portConstraint=eastwest;rotatable=0;whiteSpace=wrap;html=1;" parent="me-mc9T0GcKk_nSI2wjc-5" vertex="1">
          <mxGeometry y="30" width="190" height="30" as="geometry" />
        </mxCell>
        <mxCell id="me-mc9T0GcKk_nSI2wjc-7" value="string promptString(const string&amp;amp; prompt);" style="text;strokeColor=none;fillColor=none;align=left;verticalAlign=middle;spacingLeft=4;spacingRight=4;overflow=hidden;points=[[0,0.5],[1,0.5]];portConstraint=eastwest;rotatable=0;whiteSpace=wrap;html=1;" parent="me-mc9T0GcKk_nSI2wjc-5" vertex="1">
          <mxGeometry y="60" width="190" height="30" as="geometry" />
        </mxCell>
        <mxCell id="me-mc9T0GcKk_nSI2wjc-8" value="int promptInt(const string&amp;amp; prompt);" style="text;strokeColor=none;fillColor=none;align=left;verticalAlign=middle;spacingLeft=4;spacingRight=4;overflow=hidden;points=[[0,0.5],[1,0.5]];portConstraint=eastwest;rotatable=0;whiteSpace=wrap;html=1;" parent="me-mc9T0GcKk_nSI2wjc-5" vertex="1">
          <mxGeometry y="90" width="190" height="30" as="geometry" />
        </mxCell>
        <mxCell id="me-mc9T0GcKk_nSI2wjc-9" value="float promptFloat(const string&amp;amp; prompt);" style="text;strokeColor=none;fillColor=none;align=left;verticalAlign=middle;spacingLeft=4;spacingRight=4;overflow=hidden;points=[[0,0.5],[1,0.5]];portConstraint=eastwest;rotatable=0;whiteSpace=wrap;html=1;" parent="me-mc9T0GcKk_nSI2wjc-5" vertex="1">
          <mxGeometry y="120" width="190" height="30" as="geometry" />
        </mxCell>
        <mxCell id="me-mc9T0GcKk_nSI2wjc-10" value="Database" style="swimlane;fontStyle=0;childLayout=stackLayout;horizontal=1;startSize=30;horizontalStack=0;resizeParent=1;resizeParentMax=0;resizeLast=0;collapsible=1;marginBottom=0;whiteSpace=wrap;html=1;" parent="1" vertex="1">
          <mxGeometry x="550" y="40" width="210" height="160" as="geometry" />
        </mxCell>
        <mxCell id="me-mc9T0GcKk_nSI2wjc-11" value="sqlite3* db" style="text;strokeColor=none;fillColor=none;align=left;verticalAlign=middle;spacingLeft=4;spacingRight=4;overflow=hidden;points=[[0,0.5],[1,0.5]];portConstraint=eastwest;rotatable=0;whiteSpace=wrap;html=1;" parent="me-mc9T0GcKk_nSI2wjc-10" vertex="1">
          <mxGeometry y="30" width="210" height="20" as="geometry" />
        </mxCell>
        <mxCell id="me-mc9T0GcKk_nSI2wjc-12" value="explicit Database(const string&amp;amp; dbPath)" style="text;strokeColor=none;fillColor=none;align=left;verticalAlign=middle;spacingLeft=4;spacingRight=4;overflow=hidden;points=[[0,0.5],[1,0.5]];portConstraint=eastwest;rotatable=0;whiteSpace=wrap;html=1;" parent="me-mc9T0GcKk_nSI2wjc-10" vertex="1">
          <mxGeometry y="50" width="210" height="30" as="geometry" />
        </mxCell>
        <mxCell id="me-mc9T0GcKk_nSI2wjc-13" value="~Database() { sqlite3_close(db); };" style="text;strokeColor=none;fillColor=none;align=left;verticalAlign=middle;spacingLeft=4;spacingRight=4;overflow=hidden;points=[[0,0.5],[1,0.5]];portConstraint=eastwest;rotatable=0;whiteSpace=wrap;html=1;" parent="me-mc9T0GcKk_nSI2wjc-10" vertex="1">
          <mxGeometry y="80" width="210" height="20" as="geometry" />
        </mxCell>
        <mxCell id="me-mc9T0GcKk_nSI2wjc-14" value="bool execute(const string&amp;amp; sql, string&amp;amp; output);" style="text;strokeColor=none;fillColor=none;align=left;verticalAlign=middle;spacingLeft=4;spacingRight=4;overflow=hidden;points=[[0,0.5],[1,0.5]];portConstraint=eastwest;rotatable=0;whiteSpace=wrap;html=1;" parent="me-mc9T0GcKk_nSI2wjc-10" vertex="1">
          <mxGeometry y="100" width="210" height="30" as="geometry" />
        </mxCell>
        <mxCell id="me-mc9T0GcKk_nSI2wjc-15" value="static int callback(void* data, int argc, char** argv, char** azColName);" style="text;strokeColor=none;fillColor=none;align=left;verticalAlign=middle;spacingLeft=4;spacingRight=4;overflow=hidden;points=[[0,0.5],[1,0.5]];portConstraint=eastwest;rotatable=0;whiteSpace=wrap;html=1;" parent="me-mc9T0GcKk_nSI2wjc-10" vertex="1">
          <mxGeometry y="130" width="210" height="30" as="geometry" />
        </mxCell>
        <mxCell id="me-mc9T0GcKk_nSI2wjc-16" value="Services" style="swimlane;fontStyle=0;childLayout=stackLayout;horizontal=1;startSize=30;horizontalStack=0;resizeParent=1;resizeParentMax=0;resizeLast=0;collapsible=1;marginBottom=0;whiteSpace=wrap;html=1;" parent="1" vertex="1">
          <mxGeometry x="80" y="240" width="140" height="230" as="geometry" />
        </mxCell>
        <mxCell id="me-mc9T0GcKk_nSI2wjc-17" value="class WorkshopService" style="text;strokeColor=none;fillColor=none;align=left;verticalAlign=middle;spacingLeft=4;spacingRight=4;overflow=hidden;points=[[0,0.5],[1,0.5]];portConstraint=eastwest;rotatable=0;whiteSpace=wrap;html=1;" parent="me-mc9T0GcKk_nSI2wjc-16" vertex="1">
          <mxGeometry y="30" width="140" height="30" as="geometry" />
        </mxCell>
        <mxCell id="me-mc9T0GcKk_nSI2wjc-18" value="class MasterService" style="text;strokeColor=none;fillColor=none;align=left;verticalAlign=middle;spacingLeft=4;spacingRight=4;overflow=hidden;points=[[0,0.5],[1,0.5]];portConstraint=eastwest;rotatable=0;whiteSpace=wrap;html=1;" parent="me-mc9T0GcKk_nSI2wjc-16" vertex="1">
          <mxGeometry y="60" width="140" height="30" as="geometry" />
        </mxCell>
        <mxCell id="me-mc9T0GcKk_nSI2wjc-19" value="class CarService" style="text;strokeColor=none;fillColor=none;align=left;verticalAlign=middle;spacingLeft=4;spacingRight=4;overflow=hidden;points=[[0,0.5],[1,0.5]];portConstraint=eastwest;rotatable=0;whiteSpace=wrap;html=1;" parent="me-mc9T0GcKk_nSI2wjc-16" vertex="1">
          <mxGeometry y="90" width="140" height="30" as="geometry" />
        </mxCell>
        <mxCell id="me-mc9T0GcKk_nSI2wjc-20" value="class RepairService" style="text;strokeColor=none;fillColor=none;align=left;verticalAlign=middle;spacingLeft=4;spacingRight=4;overflow=hidden;points=[[0,0.5],[1,0.5]];portConstraint=eastwest;rotatable=0;whiteSpace=wrap;html=1;" parent="me-mc9T0GcKk_nSI2wjc-16" vertex="1">
          <mxGeometry y="120" width="140" height="30" as="geometry" />
        </mxCell>
        <mxCell id="me-mc9T0GcKk_nSI2wjc-37" value="The same for all the classes:&lt;div&gt;-&amp;nbsp;&lt;span style=&quot;background-color: initial;&quot;&gt;Database&amp;amp; db;&lt;/span&gt;&lt;/div&gt;&lt;div&gt;- ConsoleManager&amp;amp; consoleManager;&lt;/div&gt;" style="text;strokeColor=none;fillColor=none;align=left;verticalAlign=middle;spacingLeft=4;spacingRight=4;overflow=hidden;points=[[0,0.5],[1,0.5]];portConstraint=eastwest;rotatable=0;whiteSpace=wrap;html=1;" parent="me-mc9T0GcKk_nSI2wjc-16" vertex="1">
          <mxGeometry y="150" width="140" height="80" as="geometry" />
        </mxCell>
        <mxCell id="me-mc9T0GcKk_nSI2wjc-21" value="&lt;span style=&quot;color: rgb(0, 0, 0); font-family: Helvetica; font-size: 12px; font-style: normal; font-variant-ligatures: normal; font-variant-caps: normal; font-weight: 400; letter-spacing: normal; orphans: 2; text-align: left; text-indent: 0px; text-transform: none; widows: 2; word-spacing: 0px; -webkit-text-stroke-width: 0px; white-space: normal; background-color: rgb(251, 251, 251); text-decoration-thickness: initial; text-decoration-style: initial; text-decoration-color: initial; display: inline !important; float: none;&quot;&gt;WorkshopService&lt;/span&gt;" style="swimlane;fontStyle=0;childLayout=stackLayout;horizontal=1;startSize=30;horizontalStack=0;resizeParent=1;resizeParentMax=0;resizeLast=0;collapsible=1;marginBottom=0;whiteSpace=wrap;html=1;" parent="1" vertex="1">
          <mxGeometry x="520" y="270" width="240" height="190" as="geometry" />
        </mxCell>
        <mxCell id="me-mc9T0GcKk_nSI2wjc-22" value="&lt;div&gt;explicit WorkshopService(Database&amp;amp; db, ConsoleManager consoleManager);&lt;/div&gt;&lt;div&gt;void add_workshop();&lt;/div&gt;&lt;div&gt;void show_repairs_by_workshop();&lt;/div&gt;&lt;div&gt;void show_workshop_summary();&lt;/div&gt;&lt;div&gt;void show_top_workshop_details();&lt;/div&gt;&lt;div&gt;void show_works_on_date_for_workshop();&lt;/div&gt;&lt;div&gt;void show_works_by_period_and_workshop();&lt;/div&gt;" style="text;strokeColor=none;fillColor=none;align=left;verticalAlign=middle;spacingLeft=4;spacingRight=4;overflow=hidden;points=[[0,0.5],[1,0.5]];portConstraint=eastwest;rotatable=0;whiteSpace=wrap;html=1;" parent="me-mc9T0GcKk_nSI2wjc-21" vertex="1">
          <mxGeometry y="30" width="240" height="160" as="geometry" />
        </mxCell>
        <mxCell id="me-mc9T0GcKk_nSI2wjc-25" value="&lt;span style=&quot;color: rgb(0, 0, 0); font-family: Helvetica; font-size: 12px; font-style: normal; font-variant-ligatures: normal; font-variant-caps: normal; font-weight: 400; letter-spacing: normal; orphans: 2; text-align: left; text-indent: 0px; text-transform: none; widows: 2; word-spacing: 0px; -webkit-text-stroke-width: 0px; white-space: normal; background-color: rgb(251, 251, 251); text-decoration-thickness: initial; text-decoration-style: initial; text-decoration-color: initial; display: inline !important; float: none;&quot;&gt;MasterService&lt;/span&gt;" style="swimlane;fontStyle=0;childLayout=stackLayout;horizontal=1;startSize=30;horizontalStack=0;resizeParent=1;resizeParentMax=0;resizeLast=0;collapsible=1;marginBottom=0;whiteSpace=wrap;html=1;" parent="1" vertex="1">
          <mxGeometry x="290" y="310" width="190" height="140" as="geometry" />
        </mxCell>
        <mxCell id="me-mc9T0GcKk_nSI2wjc-26" value="&lt;div&gt;explicit MasterService(Database&amp;amp; db, ConsoleManager consoleManager);&lt;/div&gt;&lt;div&gt;void add_master();&lt;/div&gt;&lt;div&gt;void delete_master();&lt;/div&gt;&lt;div&gt;void update_master();&lt;/div&gt;" style="text;strokeColor=none;fillColor=none;align=left;verticalAlign=middle;spacingLeft=4;spacingRight=4;overflow=hidden;points=[[0,0.5],[1,0.5]];portConstraint=eastwest;rotatable=0;whiteSpace=wrap;html=1;" parent="me-mc9T0GcKk_nSI2wjc-25" vertex="1">
          <mxGeometry y="30" width="190" height="110" as="geometry" />
        </mxCell>
        <mxCell id="me-mc9T0GcKk_nSI2wjc-29" value="&lt;span style=&quot;text-align: left;&quot;&gt;CarService&lt;/span&gt;" style="swimlane;fontStyle=0;childLayout=stackLayout;horizontal=1;startSize=30;horizontalStack=0;resizeParent=1;resizeParentMax=0;resizeLast=0;collapsible=1;marginBottom=0;whiteSpace=wrap;html=1;" parent="1" vertex="1">
          <mxGeometry x="80" y="520" width="140" height="140" as="geometry" />
        </mxCell>
        <mxCell id="me-mc9T0GcKk_nSI2wjc-30" value="&lt;div&gt;explicit CarService(Database&amp;amp; db, ConsoleManager consoleManager);&lt;/div&gt;&lt;div&gt;void add_car();&lt;/div&gt;&lt;div&gt;void update_car();&lt;/div&gt;&lt;div&gt;void delete_car();&lt;/div&gt;" style="text;strokeColor=none;fillColor=none;align=left;verticalAlign=middle;spacingLeft=4;spacingRight=4;overflow=hidden;points=[[0,0.5],[1,0.5]];portConstraint=eastwest;rotatable=0;whiteSpace=wrap;html=1;" parent="me-mc9T0GcKk_nSI2wjc-29" vertex="1">
          <mxGeometry y="30" width="140" height="110" as="geometry" />
        </mxCell>
        <mxCell id="me-mc9T0GcKk_nSI2wjc-33" value="&lt;span style=&quot;text-align: left;&quot;&gt;RepairService&lt;/span&gt;" style="swimlane;fontStyle=0;childLayout=stackLayout;horizontal=1;startSize=30;horizontalStack=0;resizeParent=1;resizeParentMax=0;resizeLast=0;collapsible=1;marginBottom=0;whiteSpace=wrap;html=1;" parent="1" vertex="1">
          <mxGeometry x="290" y="520" width="180" height="180" as="geometry" />
        </mxCell>
        <mxCell id="me-mc9T0GcKk_nSI2wjc-34" value="&lt;div&gt;explicit RepairService(Database&amp;amp; db, ConsoleManager consoleManager);&lt;/div&gt;&lt;div&gt;&amp;nbsp;void show_repairs_by_workshop();&lt;/div&gt;&lt;div&gt;&amp;nbsp;void show_repairs_by_master();&lt;/div&gt;&lt;div&gt;&amp;nbsp;void show_repairs_by_brand();&lt;/div&gt;&lt;div&gt;&amp;nbsp;void add_repair();&lt;/div&gt;" style="text;strokeColor=none;fillColor=none;align=left;verticalAlign=middle;spacingLeft=4;spacingRight=4;overflow=hidden;points=[[0,0.5],[1,0.5]];portConstraint=eastwest;rotatable=0;whiteSpace=wrap;html=1;" parent="me-mc9T0GcKk_nSI2wjc-33" vertex="1">
          <mxGeometry y="30" width="180" height="150" as="geometry" />
        </mxCell>
        <mxCell id="me-mc9T0GcKk_nSI2wjc-38" value="" style="endArrow=classic;html=1;rounded=0;exitX=0;exitY=0.5;exitDx=0;exitDy=0;entryX=0;entryY=0.5;entryDx=0;entryDy=0;" parent="1" source="me-mc9T0GcKk_nSI2wjc-18" target="me-mc9T0GcKk_nSI2wjc-2" edge="1">
          <mxGeometry width="50" height="50" relative="1" as="geometry">
            <mxPoint x="370" y="300" as="sourcePoint" />
            <mxPoint x="50" y="130" as="targetPoint" />
            <Array as="points">
              <mxPoint x="40" y="315" />
              <mxPoint x="40" y="85" />
            </Array>
          </mxGeometry>
        </mxCell>
        <mxCell id="me-mc9T0GcKk_nSI2wjc-39" value="" style="endArrow=classic;html=1;rounded=0;entryX=0.5;entryY=0;entryDx=0;entryDy=0;" parent="1" target="me-mc9T0GcKk_nSI2wjc-5" edge="1">
          <mxGeometry width="50" height="50" relative="1" as="geometry">
            <mxPoint x="40" y="90" as="sourcePoint" />
            <mxPoint x="420" y="250" as="targetPoint" />
            <Array as="points">
              <mxPoint x="40" y="20" />
              <mxPoint x="385" y="20" />
            </Array>
          </mxGeometry>
        </mxCell>
        <mxCell id="me-mc9T0GcKk_nSI2wjc-40" value="" style="endArrow=classic;html=1;rounded=0;entryX=0.5;entryY=0;entryDx=0;entryDy=0;" parent="1" target="me-mc9T0GcKk_nSI2wjc-10" edge="1">
          <mxGeometry width="50" height="50" relative="1" as="geometry">
            <mxPoint x="380" y="20" as="sourcePoint" />
            <mxPoint x="420" y="250" as="targetPoint" />
            <Array as="points">
              <mxPoint x="655" y="20" />
            </Array>
          </mxGeometry>
        </mxCell>
        <mxCell id="me-mc9T0GcKk_nSI2wjc-41" value="" style="endArrow=classic;html=1;rounded=0;exitX=1;exitY=0.5;exitDx=0;exitDy=0;entryX=-0.007;entryY=0.077;entryDx=0;entryDy=0;entryPerimeter=0;" parent="1" source="me-mc9T0GcKk_nSI2wjc-17" target="me-mc9T0GcKk_nSI2wjc-21" edge="1">
          <mxGeometry width="50" height="50" relative="1" as="geometry">
            <mxPoint x="370" y="400" as="sourcePoint" />
            <mxPoint x="420" y="350" as="targetPoint" />
          </mxGeometry>
        </mxCell>
        <mxCell id="me-mc9T0GcKk_nSI2wjc-42" value="" style="endArrow=classic;html=1;rounded=0;entryX=-0.012;entryY=0.059;entryDx=0;entryDy=0;entryPerimeter=0;" parent="1" edge="1">
          <mxGeometry width="50" height="50" relative="1" as="geometry">
            <mxPoint x="220" y="321" as="sourcePoint" />
            <mxPoint x="287.72" y="321.26" as="targetPoint" />
          </mxGeometry>
        </mxCell>
        <mxCell id="me-mc9T0GcKk_nSI2wjc-43" value="" style="endArrow=classic;html=1;rounded=0;exitX=0;exitY=0.5;exitDx=0;exitDy=0;entryX=-0.001;entryY=0.107;entryDx=0;entryDy=0;entryPerimeter=0;" parent="1" source="me-mc9T0GcKk_nSI2wjc-19" target="me-mc9T0GcKk_nSI2wjc-29" edge="1">
          <mxGeometry width="50" height="50" relative="1" as="geometry">
            <mxPoint x="370" y="400" as="sourcePoint" />
            <mxPoint x="40" y="540" as="targetPoint" />
            <Array as="points">
              <mxPoint x="40" y="345" />
              <mxPoint x="40" y="535" />
            </Array>
          </mxGeometry>
        </mxCell>
        <mxCell id="me-mc9T0GcKk_nSI2wjc-44" value="" style="endArrow=classic;html=1;rounded=0;entryX=0.5;entryY=0;entryDx=0;entryDy=0;" parent="1" target="me-mc9T0GcKk_nSI2wjc-33" edge="1">
          <mxGeometry width="50" height="50" relative="1" as="geometry">
            <mxPoint x="40" y="490" as="sourcePoint" />
            <mxPoint x="420" y="350" as="targetPoint" />
            <Array as="points">
              <mxPoint x="380" y="490" />
            </Array>
          </mxGeometry>
        </mxCell>
      </root>
    </mxGraphModel>
  </diagram>
</mxfile>
